STARTFONT 2.1
FONT -Monotype-Bembo-Bold-R-Normal--10-100-72-72-P-51-ISO8859-1
SIZE 10 72 72
FONTBOUNDINGBOX 13 13 -3 -4

STARTPROPERTIES 22
FOUNDRY "Monotype"
FAMILY_NAME "Bembo"
WEIGHT_NAME "Bold"
SLANT "R"
SETWIDTH_NAME "Normal"
ADD_STYLE_NAME ""
PIXEL_SIZE 10
POINT_SIZE 100
RESOLUTION_X 72
RESOLUTION_Y 72
SPACING "P"
AVERAGE_WIDTH 51
CHARSET_REGISTRY "ISO8859"
CHARSET_ENCODING "1"
FULL_NAME "Bembo-Bold"
COPYRIGHT "Copyright (c) 1991 The Monotype Corporation plc."
WEIGHT 10
X_HEIGHT 5
QUAD_WIDTH 6
DEFAULT_CHAR 32
FONT_DESCENT 3
FONT_ASCENT 8
ENDPROPERTIES

CHARS 190

STARTCHAR space
ENCODING 32
SWIDTH 278 0
DWIDTH 3 0
BBX 1 1 0 0
BITMAP
00
ENDCHAR

STARTCHAR exclam
ENCODING 33
SWIDTH 313 0
DWIDTH 3 0
BBX 1 7 1 0
BITMAP
80
80
80
80
80
00
80
ENDCHAR

STARTCHAR quotedbl
ENCODING 34
SWIDTH 552 0
DWIDTH 6 0
BBX 3 3 1 4
BITMAP
A0
A0
A0
ENDCHAR

STARTCHAR numbersign
ENCODING 35
SWIDTH 668 0
DWIDTH 7 0
BBX 6 8 0 -1
BITMAP
2C
28
FC
48
48
FC
50
D0
ENDCHAR

STARTCHAR dollar
ENCODING 36
SWIDTH 479 0
DWIDTH 5 0
BBX 4 8 0 -1
BITMAP
F0
C0
C0
60
50
D0
E0
40
ENDCHAR

STARTCHAR percent
ENCODING 37
SWIDTH 896 0
DWIDTH 9 0
BBX 9 7 0 0
BITMAP
E200
A400
E500
0A80
1280
1280
2100
ENDCHAR

STARTCHAR ampersand
ENCODING 38
SWIDTH 750 0
DWIDTH 8 0
BBX 7 7 0 0
BITMAP
70
50
66
B4
9C
98
6E
ENDCHAR

STARTCHAR quoteright
ENCODING 39
SWIDTH 313 0
DWIDTH 3 0
BBX 1 3 1 4
BITMAP
80
80
80
ENDCHAR

STARTCHAR parenleft
ENCODING 40
SWIDTH 354 0
DWIDTH 4 0
BBX 2 10 1 -3
BITMAP
40
80
80
80
80
80
80
80
40
40
ENDCHAR

STARTCHAR parenright
ENCODING 41
SWIDTH 344 0
DWIDTH 3 0
BBX 2 10 0 -3
BITMAP
80
40
40
40
40
40
40
40
80
80
ENDCHAR

STARTCHAR asterisk
ENCODING 42
SWIDTH 521 0
DWIDTH 5 0
BBX 4 4 0 2
BITMAP
20
F0
60
50
ENDCHAR

STARTCHAR plus
ENCODING 43
SWIDTH 667 0
DWIDTH 7 0
BBX 5 5 1 2
BITMAP
20
20
F8
20
20
ENDCHAR

STARTCHAR comma
ENCODING 44
SWIDTH 313 0
DWIDTH 3 0
BBX 1 3 1 -2
BITMAP
80
80
80
ENDCHAR

STARTCHAR minus
ENCODING 45
SWIDTH 667 0
DWIDTH 7 0
BBX 5 1 1 3
BITMAP
F8
ENDCHAR

STARTCHAR period
ENCODING 46
SWIDTH 313 0
DWIDTH 3 0
BBX 1 1 1 0
BITMAP
80
ENDCHAR

STARTCHAR slash
ENCODING 47
SWIDTH 531 0
DWIDTH 3 0
BBX 3 10 0 -3
BITMAP
20
20
20
40
40
40
40
C0
80
80
ENDCHAR

STARTCHAR zero
ENCODING 48
SWIDTH 500 0
DWIDTH 5 0
BBX 4 7 0 0
BITMAP
60
90
90
90
90
90
60
ENDCHAR

STARTCHAR one
ENCODING 49
SWIDTH 500 0
DWIDTH 5 0
BBX 3 7 1 0
BITMAP
40
C0
40
40
40
40
E0
ENDCHAR

STARTCHAR two
ENCODING 50
SWIDTH 500 0
DWIDTH 5 0
BBX 4 7 0 0
BITMAP
60
90
10
10
20
50
F0
ENDCHAR

STARTCHAR three
ENCODING 51
SWIDTH 500 0
DWIDTH 5 0
BBX 3 7 1 0
BITMAP
60
A0
20
60
20
20
C0
ENDCHAR

STARTCHAR four
ENCODING 52
SWIDTH 500 0
DWIDTH 5 0
BBX 4 7 0 0
BITMAP
20
60
60
A0
F0
20
20
ENDCHAR

STARTCHAR five
ENCODING 53
SWIDTH 500 0
DWIDTH 5 0
BBX 4 7 0 0
BITMAP
F0
80
E0
10
10
10
E0
ENDCHAR

STARTCHAR six
ENCODING 54
SWIDTH 500 0
DWIDTH 5 0
BBX 4 7 1 0
BITMAP
60
40
E0
90
90
90
60
ENDCHAR

STARTCHAR seven
ENCODING 55
SWIDTH 500 0
DWIDTH 5 0
BBX 5 7 0 0
BITMAP
F8
88
10
10
20
20
40
ENDCHAR

STARTCHAR eight
ENCODING 56
SWIDTH 500 0
DWIDTH 5 0
BBX 4 7 0 0
BITMAP
60
90
90
60
B0
90
60
ENDCHAR

STARTCHAR nine
ENCODING 57
SWIDTH 500 0
DWIDTH 5 0
BBX 4 7 0 0
BITMAP
60
90
90
70
10
20
60
ENDCHAR

STARTCHAR colon
ENCODING 58
SWIDTH 313 0
DWIDTH 3 0
BBX 1 5 1 0
BITMAP
80
00
00
00
80
ENDCHAR

STARTCHAR semicolon
ENCODING 59
SWIDTH 313 0
DWIDTH 3 0
BBX 1 7 1 -2
BITMAP
80
00
00
00
80
80
80
ENDCHAR

STARTCHAR less
ENCODING 60
SWIDTH 667 0
DWIDTH 7 0
BBX 5 5 1 1
BITMAP
08
70
80
70
08
ENDCHAR

STARTCHAR equal
ENCODING 61
SWIDTH 667 0
DWIDTH 7 0
BBX 5 3 1 2
BITMAP
F8
00
F8
ENDCHAR

STARTCHAR greater
ENCODING 62
SWIDTH 667 0
DWIDTH 7 0
BBX 5 5 1 1
BITMAP
80
70
08
70
80
ENDCHAR

STARTCHAR question
ENCODING 63
SWIDTH 365 0
DWIDTH 4 0
BBX 2 7 1 0
BITMAP
C0
40
40
80
80
00
80
ENDCHAR

STARTCHAR at
ENCODING 64
SWIDTH 927 0
DWIDTH 9 0
BBX 9 10 0 -3
BITMAP
1E00
6F00
5680
A480
A480
AD00
BE80
4080
6100
3E00
ENDCHAR

STARTCHAR A
ENCODING 65
SWIDTH 740 0
DWIDTH 7 0
BBX 7 7 0 0
BITMAP
10
28
28
78
4C
44
EE
ENDCHAR

STARTCHAR B
ENCODING 66
SWIDTH 698 0
DWIDTH 7 0
BBX 6 7 0 0
BITMAP
F8
44
44
7C
44
44
F8
ENDCHAR

STARTCHAR C
ENCODING 67
SWIDTH 740 0
DWIDTH 7 0
BBX 6 7 1 0
BITMAP
3C
44
84
80
80
44
3C
ENDCHAR

STARTCHAR D
ENCODING 68
SWIDTH 823 0
DWIDTH 8 0
BBX 7 7 0 0
BITMAP
FC
46
42
42
42
44
F8
ENDCHAR

STARTCHAR E
ENCODING 69
SWIDTH 646 0
DWIDTH 6 0
BBX 6 7 0 0
BITMAP
FC
44
40
7C
44
44
FC
ENDCHAR

STARTCHAR F
ENCODING 70
SWIDTH 594 0
DWIDTH 6 0
BBX 5 7 0 0
BITMAP
F8
48
40
78
48
40
E0
ENDCHAR

STARTCHAR G
ENCODING 71
SWIDTH 781 0
DWIDTH 8 0
BBX 7 7 1 0
BITMAP
3C
44
84
8E
84
C4
3C
ENDCHAR

STARTCHAR H
ENCODING 72
SWIDTH 833 0
DWIDTH 8 0
BBX 8 7 0 0
BITMAP
E7
42
42
7E
42
42
E7
ENDCHAR

STARTCHAR I
ENCODING 73
SWIDTH 365 0
DWIDTH 4 0
BBX 3 7 0 0
BITMAP
E0
40
40
40
40
40
E0
ENDCHAR

STARTCHAR J
ENCODING 74
SWIDTH 344 0
DWIDTH 3 0
BBX 4 10 0 -3
BITMAP
70
20
20
20
20
20
20
20
20
C0
ENDCHAR

STARTCHAR K
ENCODING 75
SWIDTH 740 0
DWIDTH 7 0
BBX 8 7 0 0
BITMAP
EE
44
48
70
48
44
EF
ENDCHAR

STARTCHAR L
ENCODING 76
SWIDTH 604 0
DWIDTH 6 0
BBX 6 7 0 0
BITMAP
E0
40
40
40
40
44
F8
ENDCHAR

STARTCHAR M
ENCODING 77
SWIDTH 927 0
DWIDTH 9 0
BBX 9 7 0 0
BITMAP
6300
6300
7700
5500
5500
4900
EB80
ENDCHAR

STARTCHAR N
ENCODING 78
SWIDTH 813 0
DWIDTH 8 0
BBX 8 7 0 0
BITMAP
C7
62
52
4A
46
42
E2
ENDCHAR

STARTCHAR O
ENCODING 79
SWIDTH 844 0
DWIDTH 8 0
BBX 7 7 1 0
BITMAP
38
44
82
82
82
44
38
ENDCHAR

STARTCHAR P
ENCODING 80
SWIDTH 646 0
DWIDTH 6 0
BBX 6 7 0 0
BITMAP
F8
44
44
78
40
40
E0
ENDCHAR

STARTCHAR Q
ENCODING 81
SWIDTH 844 0
DWIDTH 8 0
BBX 7 10 1 -3
BITMAP
38
44
82
82
82
C6
7C
18
08
06
ENDCHAR

STARTCHAR R
ENCODING 82
SWIDTH 771 0
DWIDTH 8 0
BBX 8 7 0 0
BITMAP
F8
44
44
78
4C
46
E3
ENDCHAR

STARTCHAR S
ENCODING 83
SWIDTH 563 0
DWIDTH 6 0
BBX 4 7 1 0
BITMAP
70
90
C0
60
10
90
E0
ENDCHAR

STARTCHAR T
ENCODING 84
SWIDTH 729 0
DWIDTH 7 0
BBX 7 7 0 0
BITMAP
FE
92
10
10
10
10
38
ENDCHAR

STARTCHAR U
ENCODING 85
SWIDTH 771 0
DWIDTH 8 0
BBX 8 7 0 0
BITMAP
E7
42
42
42
42
42
3C
ENDCHAR

STARTCHAR V
ENCODING 86
SWIDTH 750 0
DWIDTH 8 0
BBX 7 7 0 0
BITMAP
E6
62
24
24
18
18
08
ENDCHAR

STARTCHAR W
ENCODING 87
SWIDTH 1000 0
DWIDTH 10 0
BBX 10 7 0 0
BITMAP
FEC0
4AC0
2E80
2C80
3500
1F00
1B00
ENDCHAR

STARTCHAR X
ENCODING 88
SWIDTH 802 0
DWIDTH 8 0
BBX 8 7 0 0
BITMAP
F7
24
18
18
28
44
EF
ENDCHAR

STARTCHAR Y
ENCODING 89
SWIDTH 750 0
DWIDTH 8 0
BBX 7 7 0 0
BITMAP
E6
42
34
18
10
10
38
ENDCHAR

STARTCHAR Z
ENCODING 90
SWIDTH 750 0
DWIDTH 8 0
BBX 7 7 0 0
BITMAP
FE
84
08
10
20
42
FE
ENDCHAR

STARTCHAR bracketleft
ENCODING 91
SWIDTH 365 0
DWIDTH 4 0
BBX 2 10 1 -3
BITMAP
C0
80
80
80
80
80
80
80
80
C0
ENDCHAR

STARTCHAR backslash
ENCODING 92
SWIDTH 531 0
DWIDTH 5 0
BBX 5 7 0 0
BITMAP
80
40
40
20
20
10
18
ENDCHAR

STARTCHAR bracketright
ENCODING 93
SWIDTH 365 0
DWIDTH 4 0
BBX 2 10 0 -3
BITMAP
C0
40
40
40
40
40
40
40
40
C0
ENDCHAR

STARTCHAR asciicircum
ENCODING 94
SWIDTH 583 0
DWIDTH 6 0
BBX 4 4 1 3
BITMAP
60
60
F0
90
ENDCHAR

STARTCHAR underscore
ENCODING 95
SWIDTH 500 0
DWIDTH 5 0
BBX 5 1 0 -3
BITMAP
F8
ENDCHAR

STARTCHAR quoteleft
ENCODING 96
SWIDTH 313 0
DWIDTH 3 0
BBX 1 3 1 4
BITMAP
80
80
80
ENDCHAR

STARTCHAR a
ENCODING 97
SWIDTH 479 0
DWIDTH 5 0
BBX 4 5 1 0
BITMAP
E0
E0
A0
A0
F0
ENDCHAR

STARTCHAR b
ENCODING 98
SWIDTH 573 0
DWIDTH 6 0
BBX 5 7 0 0
BITMAP
C0
40
70
48
48
48
70
ENDCHAR

STARTCHAR c
ENCODING 99
SWIDTH 490 0
DWIDTH 5 0
BBX 4 5 1 0
BITMAP
70
80
80
90
60
ENDCHAR

STARTCHAR d
ENCODING 100
SWIDTH 573 0
DWIDTH 6 0
BBX 5 7 1 0
BITMAP
30
10
70
90
90
90
78
ENDCHAR

STARTCHAR e
ENCODING 101
SWIDTH 479 0
DWIDTH 5 0
BBX 4 5 0 0
BITMAP
70
F0
80
90
60
ENDCHAR

STARTCHAR f
ENCODING 102
SWIDTH 323 0
DWIDTH 3 0
BBX 5 7 0 0
BITMAP
38
48
E0
40
40
40
E0
ENDCHAR

STARTCHAR g
ENCODING 103
SWIDTH 552 0
DWIDTH 6 0
BBX 5 8 0 -3
BITMAP
78
90
90
E0
80
F8
88
F0
ENDCHAR

STARTCHAR h
ENCODING 104
SWIDTH 563 0
DWIDTH 6 0
BBX 6 7 0 0
BITMAP
C0
40
78
48
48
48
FC
ENDCHAR

STARTCHAR i
ENCODING 105
SWIDTH 292 0
DWIDTH 3 0
BBX 3 7 -1 0
BITMAP
40
00
C0
40
40
40
E0
ENDCHAR

STARTCHAR j
ENCODING 106
SWIDTH 281 0
DWIDTH 3 0
BBX 3 10 0 -3
BITMAP
20
00
60
20
20
20
20
20
20
C0
ENDCHAR

STARTCHAR k
ENCODING 107
SWIDTH 542 0
DWIDTH 5 0
BBX 5 7 0 0
BITMAP
C0
40
58
50
60
50
F8
ENDCHAR

STARTCHAR l
ENCODING 108
SWIDTH 271 0
DWIDTH 3 0
BBX 3 7 0 0
BITMAP
C0
40
40
40
40
40
E0
ENDCHAR

STARTCHAR m
ENCODING 109
SWIDTH 927 0
DWIDTH 9 0
BBX 9 5 0 0
BITMAP
FF00
4900
4900
4900
FF80
ENDCHAR

STARTCHAR n
ENCODING 110
SWIDTH 573 0
DWIDTH 6 0
BBX 6 5 0 0
BITMAP
F8
48
48
48
FC
ENDCHAR

STARTCHAR o
ENCODING 111
SWIDTH 573 0
DWIDTH 6 0
BBX 5 5 0 0
BITMAP
70
98
88
C8
70
ENDCHAR

STARTCHAR p
ENCODING 112
SWIDTH 573 0
DWIDTH 6 0
BBX 5 8 0 -3
BITMAP
F0
48
48
48
70
40
40
E0
ENDCHAR

STARTCHAR q
ENCODING 113
SWIDTH 573 0
DWIDTH 6 0
BBX 5 8 0 -3
BITMAP
70
90
90
90
70
10
10
38
ENDCHAR

STARTCHAR r
ENCODING 114
SWIDTH 396 0
DWIDTH 4 0
BBX 4 5 0 0
BITMAP
F0
40
40
40
E0
ENDCHAR

STARTCHAR s
ENCODING 115
SWIDTH 375 0
DWIDTH 4 0
BBX 3 5 0 0
BITMAP
E0
A0
40
A0
E0
ENDCHAR

STARTCHAR t
ENCODING 116
SWIDTH 344 0
DWIDTH 3 0
BBX 3 6 0 0
BITMAP
40
E0
40
40
40
60
ENDCHAR

STARTCHAR u
ENCODING 117
SWIDTH 573 0
DWIDTH 6 0
BBX 5 5 0 0
BITMAP
B0
90
90
90
F8
ENDCHAR

STARTCHAR v
ENCODING 118
SWIDTH 521 0
DWIDTH 5 0
BBX 5 5 0 0
BITMAP
F8
48
50
30
30
ENDCHAR

STARTCHAR w
ENCODING 119
SWIDTH 781 0
DWIDTH 8 0
BBX 8 5 0 0
BITMAP
DB
5A
7A
36
24
ENDCHAR

STARTCHAR x
ENCODING 120
SWIDTH 531 0
DWIDTH 5 0
BBX 5 5 0 0
BITMAP
D8
70
20
50
D8
ENDCHAR

STARTCHAR y
ENCODING 121
SWIDTH 521 0
DWIDTH 5 0
BBX 5 8 0 -3
BITMAP
F8
48
30
30
20
20
20
C0
ENDCHAR

STARTCHAR z
ENCODING 122
SWIDTH 510 0
DWIDTH 5 0
BBX 4 5 1 0
BITMAP
F0
A0
60
50
F0
ENDCHAR

STARTCHAR braceleft
ENCODING 123
SWIDTH 396 0
DWIDTH 4 0
BBX 3 11 0 -4
BITMAP
20
40
40
40
40
80
40
40
40
40
20
ENDCHAR

STARTCHAR bar
ENCODING 124
SWIDTH 566 0
DWIDTH 6 0
BBX 1 10 3 -3
BITMAP
80
80
80
80
80
80
80
80
80
80
ENDCHAR

STARTCHAR braceright
ENCODING 125
SWIDTH 396 0
DWIDTH 4 0
BBX 3 10 0 -3
BITMAP
40
40
40
40
40
60
40
40
40
C0
ENDCHAR

STARTCHAR asciitilde
ENCODING 126
SWIDTH 521 0
DWIDTH 5 0
BBX 5 2 0 4
BITMAP
E8
B8
ENDCHAR

STARTCHAR exclamdown
ENCODING 161
SWIDTH 313 0
DWIDTH 3 0
BBX 1 6 1 -3
BITMAP
80
00
80
80
80
80
ENDCHAR

STARTCHAR cent
ENCODING 162
SWIDTH 490 0
DWIDTH 5 0
BBX 3 8 1 -2
BITMAP
20
40
E0
C0
E0
60
40
40
ENDCHAR

STARTCHAR sterling
ENCODING 163
SWIDTH 833 0
DWIDTH 8 0
BBX 6 10 1 -3
BITMAP
0C
10
20
20
40
F0
44
64
B4
98
ENDCHAR

STARTCHAR currency
ENCODING 164
SWIDTH 667 0
DWIDTH 7 0
BBX 4 5 1 0
BITMAP
F0
90
90
90
F0
ENDCHAR

STARTCHAR yen
ENCODING 165
SWIDTH 500 0
DWIDTH 5 0
BBX 4 7 1 0
BITMAP
F0
E0
A0
40
40
40
E0
ENDCHAR

STARTCHAR brokenbar
ENCODING 166
SWIDTH 566 0
DWIDTH 6 0
BBX 1 10 3 -3
BITMAP
80
80
80
80
80
00
80
80
80
80
ENDCHAR

STARTCHAR section
ENCODING 167
SWIDTH 469 0
DWIDTH 5 0
BBX 4 10 0 -3
BITMAP
70
C0
C0
E0
A0
70
50
30
30
E0
ENDCHAR

STARTCHAR dieresis
ENCODING 168
SWIDTH 333 0
DWIDTH 3 0
BBX 3 1 0 6
BITMAP
A0
ENDCHAR

STARTCHAR copyright
ENCODING 169
SWIDTH 750 0
DWIDTH 8 0
BBX 7 7 0 0
BITMAP
38
6C
A2
A2
AA
5C
38
ENDCHAR

STARTCHAR ordfeminine
ENCODING 170
SWIDTH 365 0
DWIDTH 4 0
BBX 3 3 0 4
BITMAP
E0
A0
E0
ENDCHAR

STARTCHAR guillemotleft
ENCODING 171
SWIDTH 427 0
DWIDTH 4 0
BBX 4 3 0 2
BITMAP
A0
50
A0
ENDCHAR

STARTCHAR logicalnot
ENCODING 172
SWIDTH 667 0
DWIDTH 7 0
BBX 6 3 0 2
BITMAP
FC
04
04
ENDCHAR

STARTCHAR hyphen
ENCODING 173
SWIDTH 417 0
DWIDTH 4 0
BBX 3 1 1 1
BITMAP
E0
ENDCHAR

STARTCHAR registered
ENCODING 174
SWIDTH 750 0
DWIDTH 8 0
BBX 7 7 0 0
BITMAP
38
6C
AA
B2
B2
7C
38
ENDCHAR

STARTCHAR macron
ENCODING 175
SWIDTH 333 0
DWIDTH 3 0
BBX 3 1 0 6
BITMAP
E0
ENDCHAR

STARTCHAR degree
ENCODING 176
SWIDTH 396 0
DWIDTH 4 0
BBX 4 3 0 4
BITMAP
60
90
60
ENDCHAR

STARTCHAR plusminus
ENCODING 177
SWIDTH 668 0
DWIDTH 7 0
BBX 5 7 1 0
BITMAP
20
20
F8
20
20
00
F8
ENDCHAR

STARTCHAR twosuperior
ENCODING 178
SWIDTH 313 0
DWIDTH 3 0
BBX 3 5 -2 2
BITMAP
E0
A0
20
60
E0
ENDCHAR

STARTCHAR threesuperior
ENCODING 179
SWIDTH 302 0
DWIDTH 3 0
BBX 3 5 -2 2
BITMAP
60
A0
60
20
C0
ENDCHAR

STARTCHAR acute
ENCODING 180
SWIDTH 333 0
DWIDTH 3 0
BBX 2 2 1 5
BITMAP
C0
80
ENDCHAR

STARTCHAR mu
ENCODING 181
SWIDTH 552 0
DWIDTH 6 0
BBX 5 8 0 -3
BITMAP
90
90
90
98
F8
80
80
80
ENDCHAR

STARTCHAR paragraph
ENCODING 182
SWIDTH 542 0
DWIDTH 5 0
BBX 6 10 0 -3
BITMAP
7C
E8
E8
E8
E8
68
28
28
28
28
ENDCHAR

STARTCHAR periodcentered
ENCODING 183
SWIDTH 313 0
DWIDTH 3 0
BBX 1 1 1 4
BITMAP
80
ENDCHAR

STARTCHAR cedilla
ENCODING 184
SWIDTH 333 0
DWIDTH 3 0
BBX 3 3 0 -3
BITMAP
20
60
E0
ENDCHAR

STARTCHAR onesuperior
ENCODING 185
SWIDTH 313 0
DWIDTH 3 0
BBX 3 5 -3 2
BITMAP
C0
40
40
40
E0
ENDCHAR

STARTCHAR ordmasculine
ENCODING 186
SWIDTH 375 0
DWIDTH 4 0
BBX 3 3 0 4
BITMAP
E0
A0
E0
ENDCHAR

STARTCHAR guillemotright
ENCODING 187
SWIDTH 427 0
DWIDTH 4 0
BBX 4 3 0 2
BITMAP
50
A0
50
ENDCHAR

STARTCHAR onequarter
ENCODING 188
SWIDTH 823 0
DWIDTH 8 0
BBX 8 7 2 0
BITMAP
C4
48
4A
52
F6
27
42
ENDCHAR

STARTCHAR onehalf
ENCODING 189
SWIDTH 823 0
DWIDTH 8 0
BBX 8 7 2 0
BITMAP
C4
48
4F
55
F1
23
47
ENDCHAR

STARTCHAR threequarters
ENCODING 190
SWIDTH 823 0
DWIDTH 8 0
BBX 8 7 2 0
BITMAP
64
A8
6A
32
F6
27
42
ENDCHAR

STARTCHAR questiondown
ENCODING 191
SWIDTH 365 0
DWIDTH 4 0
BBX 2 8 1 -3
BITMAP
40
00
40
40
80
80
80
C0
ENDCHAR

STARTCHAR Agrave
ENCODING 192
SWIDTH 740 0
DWIDTH 7 0
BBX 7 9 0 0
BITMAP
30
10
10
28
28
78
4C
44
EE
ENDCHAR

STARTCHAR Aacute
ENCODING 193
SWIDTH 740 0
DWIDTH 7 0
BBX 7 9 0 0
BITMAP
18
10
10
28
28
78
4C
44
EE
ENDCHAR

STARTCHAR Acircumflex
ENCODING 194
SWIDTH 740 0
DWIDTH 7 0
BBX 7 9 0 0
BITMAP
10
28
10
28
28
78
4C
44
EE
ENDCHAR

STARTCHAR Atilde
ENCODING 195
SWIDTH 740 0
DWIDTH 7 0
BBX 7 8 0 0
BITMAP
3C
10
28
28
78
4C
44
EE
ENDCHAR

STARTCHAR Adieresis
ENCODING 196
SWIDTH 740 0
DWIDTH 7 0
BBX 7 8 0 0
BITMAP
28
10
28
28
78
4C
44
EE
ENDCHAR

STARTCHAR Aring
ENCODING 197
SWIDTH 740 0
DWIDTH 7 0
BBX 7 9 0 0
BITMAP
38
38
10
28
28
78
4C
44
EE
ENDCHAR

STARTCHAR AE
ENCODING 198
SWIDTH 896 0
DWIDTH 9 0
BBX 9 7 0 0
BITMAP
1F80
0C80
1F80
3C80
2400
4480
EF80
ENDCHAR

STARTCHAR Ccedilla
ENCODING 199
SWIDTH 740 0
DWIDTH 7 0
BBX 6 10 1 -3
BITMAP
3C
44
84
80
80
44
3C
10
30
70
ENDCHAR

STARTCHAR Egrave
ENCODING 200
SWIDTH 646 0
DWIDTH 6 0
BBX 6 9 0 0
BITMAP
30
10
FC
44
40
7C
44
44
FC
ENDCHAR

STARTCHAR Eacute
ENCODING 201
SWIDTH 646 0
DWIDTH 6 0
BBX 6 9 0 0
BITMAP
18
10
FC
44
40
7C
44
44
FC
ENDCHAR

STARTCHAR Ecircumflex
ENCODING 202
SWIDTH 646 0
DWIDTH 6 0
BBX 6 9 0 0
BITMAP
10
28
FC
44
40
7C
44
44
FC
ENDCHAR

STARTCHAR Edieresis
ENCODING 203
SWIDTH 646 0
DWIDTH 6 0
BBX 6 8 0 0
BITMAP
28
FC
44
40
7C
44
44
FC
ENDCHAR

STARTCHAR Igrave
ENCODING 204
SWIDTH 365 0
DWIDTH 4 0
BBX 3 9 0 0
BITMAP
C0
40
E0
40
40
40
40
40
E0
ENDCHAR

STARTCHAR Iacute
ENCODING 205
SWIDTH 365 0
DWIDTH 4 0
BBX 3 9 0 0
BITMAP
60
40
E0
40
40
40
40
40
E0
ENDCHAR

STARTCHAR Icircumflex
ENCODING 206
SWIDTH 365 0
DWIDTH 4 0
BBX 3 9 0 0
BITMAP
40
A0
E0
40
40
40
40
40
E0
ENDCHAR

STARTCHAR Idieresis
ENCODING 207
SWIDTH 365 0
DWIDTH 4 0
BBX 3 8 0 0
BITMAP
A0
E0
40
40
40
40
40
E0
ENDCHAR

STARTCHAR Eth
ENCODING 208
SWIDTH 823 0
DWIDTH 8 0
BBX 7 7 0 0
BITMAP
FC
46
F2
42
42
44
F8
ENDCHAR

STARTCHAR Ntilde
ENCODING 209
SWIDTH 813 0
DWIDTH 8 0
BBX 8 8 0 0
BITMAP
3C
C7
62
52
4A
46
42
E2
ENDCHAR

STARTCHAR Ograve
ENCODING 210
SWIDTH 844 0
DWIDTH 8 0
BBX 7 9 1 0
BITMAP
30
10
38
44
82
82
82
44
38
ENDCHAR

STARTCHAR Oacute
ENCODING 211
SWIDTH 844 0
DWIDTH 8 0
BBX 7 9 1 0
BITMAP
18
10
38
44
82
82
82
44
38
ENDCHAR

STARTCHAR Ocircumflex
ENCODING 212
SWIDTH 844 0
DWIDTH 8 0
BBX 7 9 1 0
BITMAP
10
28
38
44
82
82
82
44
38
ENDCHAR

STARTCHAR Otilde
ENCODING 213
SWIDTH 844 0
DWIDTH 8 0
BBX 7 8 1 0
BITMAP
78
38
44
82
82
82
44
38
ENDCHAR

STARTCHAR Odieresis
ENCODING 214
SWIDTH 844 0
DWIDTH 8 0
BBX 7 8 1 0
BITMAP
28
38
44
82
82
82
44
38
ENDCHAR

STARTCHAR multiply
ENCODING 215
SWIDTH 667 0
DWIDTH 7 0
BBX 5 5 1 1
BITMAP
88
50
20
50
88
ENDCHAR

STARTCHAR Oslash
ENCODING 216
SWIDTH 844 0
DWIDTH 8 0
BBX 7 7 1 0
BITMAP
3E
4C
8A
92
A2
44
B8
ENDCHAR

STARTCHAR Ugrave
ENCODING 217
SWIDTH 771 0
DWIDTH 8 0
BBX 8 9 0 0
BITMAP
18
08
E7
42
42
42
42
42
3C
ENDCHAR

STARTCHAR Uacute
ENCODING 218
SWIDTH 771 0
DWIDTH 8 0
BBX 8 9 0 0
BITMAP
18
10
E7
42
42
42
42
42
3C
ENDCHAR

STARTCHAR Ucircumflex
ENCODING 219
SWIDTH 771 0
DWIDTH 8 0
BBX 8 9 0 0
BITMAP
10
28
E7
42
42
42
42
42
3C
ENDCHAR

STARTCHAR Udieresis
ENCODING 220
SWIDTH 771 0
DWIDTH 8 0
BBX 8 8 0 0
BITMAP
28
E7
42
42
42
42
42
3C
ENDCHAR

STARTCHAR Yacute
ENCODING 221
SWIDTH 750 0
DWIDTH 8 0
BBX 7 9 0 0
BITMAP
18
10
E6
42
34
18
10
10
38
ENDCHAR

STARTCHAR Thorn
ENCODING 222
SWIDTH 646 0
DWIDTH 6 0
BBX 6 7 0 0
BITMAP
E0
78
44
44
44
78
E0
ENDCHAR

STARTCHAR germandbls
ENCODING 223
SWIDTH 563 0
DWIDTH 6 0
BBX 5 7 0 0
BITMAP
38
58
50
48
48
48
F0
ENDCHAR

STARTCHAR agrave
ENCODING 224
SWIDTH 479 0
DWIDTH 5 0
BBX 4 7 1 0
BITMAP
C0
40
E0
E0
A0
A0
F0
ENDCHAR

STARTCHAR aacute
ENCODING 225
SWIDTH 479 0
DWIDTH 5 0
BBX 4 7 1 0
BITMAP
60
40
E0
E0
A0
A0
F0
ENDCHAR

STARTCHAR acircumflex
ENCODING 226
SWIDTH 479 0
DWIDTH 5 0
BBX 4 7 1 0
BITMAP
40
A0
E0
E0
A0
A0
F0
ENDCHAR

STARTCHAR atilde
ENCODING 227
SWIDTH 479 0
DWIDTH 5 0
BBX 4 6 1 0
BITMAP
F0
E0
E0
A0
A0
F0
ENDCHAR

STARTCHAR adieresis
ENCODING 228
SWIDTH 479 0
DWIDTH 5 0
BBX 4 6 1 0
BITMAP
A0
E0
E0
A0
A0
F0
ENDCHAR

STARTCHAR aring
ENCODING 229
SWIDTH 479 0
DWIDTH 5 0
BBX 4 7 1 0
BITMAP
E0
E0
E0
E0
A0
A0
F0
ENDCHAR

STARTCHAR ae
ENCODING 230
SWIDTH 698 0
DWIDTH 7 0
BBX 6 5 1 0
BITMAP
F8
F8
A0
A4
F8
ENDCHAR

STARTCHAR ccedilla
ENCODING 231
SWIDTH 490 0
DWIDTH 5 0
BBX 4 8 1 -3
BITMAP
70
80
80
90
60
20
60
E0
ENDCHAR

STARTCHAR egrave
ENCODING 232
SWIDTH 479 0
DWIDTH 5 0
BBX 4 7 0 0
BITMAP
60
20
70
F0
80
90
60
ENDCHAR

STARTCHAR eacute
ENCODING 233
SWIDTH 479 0
DWIDTH 5 0
BBX 4 7 0 0
BITMAP
60
40
70
F0
80
90
60
ENDCHAR

STARTCHAR ecircumflex
ENCODING 234
SWIDTH 479 0
DWIDTH 5 0
BBX 4 7 0 0
BITMAP
40
A0
70
F0
80
90
60
ENDCHAR

STARTCHAR edieresis
ENCODING 235
SWIDTH 479 0
DWIDTH 5 0
BBX 4 6 0 0
BITMAP
A0
70
F0
80
90
60
ENDCHAR

STARTCHAR igrave
ENCODING 236
SWIDTH 292 0
DWIDTH 3 0
BBX 3 7 0 0
BITMAP
C0
40
C0
40
40
40
E0
ENDCHAR

STARTCHAR iacute
ENCODING 237
SWIDTH 292 0
DWIDTH 3 0
BBX 3 7 0 0
BITMAP
60
40
C0
40
40
40
E0
ENDCHAR

STARTCHAR icircumflex
ENCODING 238
SWIDTH 292 0
DWIDTH 3 0
BBX 3 7 0 0
BITMAP
40
A0
C0
40
40
40
E0
ENDCHAR

STARTCHAR idieresis
ENCODING 239
SWIDTH 292 0
DWIDTH 3 0
BBX 3 6 0 0
BITMAP
A0
C0
40
40
40
E0
ENDCHAR

STARTCHAR eth
ENCODING 240
SWIDTH 563 0
DWIDTH 6 0
BBX 5 7 0 0
BITMAP
30
70
70
98
88
C8
70
ENDCHAR

STARTCHAR ntilde
ENCODING 241
SWIDTH 573 0
DWIDTH 6 0
BBX 6 6 0 0
BITMAP
78
F8
48
48
48
FC
ENDCHAR

STARTCHAR ograve
ENCODING 242
SWIDTH 573 0
DWIDTH 6 0
BBX 5 7 0 0
BITMAP
60
20
70
98
88
C8
70
ENDCHAR

STARTCHAR oacute
ENCODING 243
SWIDTH 573 0
DWIDTH 6 0
BBX 5 7 0 0
BITMAP
30
20
70
98
88
C8
70
ENDCHAR

STARTCHAR ocircumflex
ENCODING 244
SWIDTH 573 0
DWIDTH 6 0
BBX 5 7 0 0
BITMAP
20
50
70
98
88
C8
70
ENDCHAR

STARTCHAR otilde
ENCODING 245
SWIDTH 573 0
DWIDTH 6 0
BBX 5 6 0 0
BITMAP
F0
70
98
88
C8
70
ENDCHAR

STARTCHAR odieresis
ENCODING 246
SWIDTH 573 0
DWIDTH 6 0
BBX 5 6 0 0
BITMAP
50
70
98
88
C8
70
ENDCHAR

STARTCHAR divide
ENCODING 247
SWIDTH 668 0
DWIDTH 7 0
BBX 5 5 1 1
BITMAP
20
00
F8
00
20
ENDCHAR

STARTCHAR oslash
ENCODING 248
SWIDTH 573 0
DWIDTH 6 0
BBX 6 5 0 0
BITMAP
7C
98
A8
C8
70
ENDCHAR

STARTCHAR ugrave
ENCODING 249
SWIDTH 573 0
DWIDTH 6 0
BBX 5 7 0 0
BITMAP
60
20
B0
90
90
90
F8
ENDCHAR

STARTCHAR uacute
ENCODING 250
SWIDTH 573 0
DWIDTH 6 0
BBX 5 7 0 0
BITMAP
30
20
B0
90
90
90
F8
ENDCHAR

STARTCHAR ucircumflex
ENCODING 251
SWIDTH 573 0
DWIDTH 6 0
BBX 5 7 0 0
BITMAP
20
50
B0
90
90
90
F8
ENDCHAR

STARTCHAR udieresis
ENCODING 252
SWIDTH 573 0
DWIDTH 6 0
BBX 5 6 0 0
BITMAP
50
B0
90
90
90
F8
ENDCHAR

STARTCHAR yacute
ENCODING 253
SWIDTH 521 0
DWIDTH 5 0
BBX 5 10 0 -3
BITMAP
30
20
F8
48
30
30
20
20
20
C0
ENDCHAR

STARTCHAR thorn
ENCODING 254
SWIDTH 573 0
DWIDTH 6 0
BBX 5 10 0 -3
BITMAP
C0
40
70
48
48
48
70
40
40
E0
ENDCHAR

STARTCHAR ydieresis
ENCODING 255
SWIDTH 521 0
DWIDTH 5 0
BBX 5 9 0 -3
BITMAP
50
F8
48
30
30
20
20
20
C0
ENDCHAR
ENDFONT
